<svg xmlns="http://www.w3.org/2000/svg" viewBox="0 0 634.24 262.37" style="enable-background:new 0 0 634.24 262.37" xml:space="preserve"><path style="fill:#ec2d3a" d="M376.36 189.06h-6.68l-3.49 20.76h-2.82l3.47-20.76h-6.71l.39-2.35h16.24l-.4 2.35zM390.93 199.69h-6.8l-1.69 10.12h-2.83l3.86-23.11h7.23c2.18 0 3.8.23 4.87.69 1.07.46 1.92 1.17 2.55 2.14.63.97.95 2.08.95 3.32 0 1.57-.49 2.95-1.48 4.15-.99 1.2-2.28 1.93-3.88 2.18l3.26 10.63h-3l-3.04-10.12zm-6.42-2.32h5.29c4.25 0 6.37-1.53 6.37-4.59 0-2.55-1.66-3.83-4.98-3.83h-5.28l-1.4 8.42zM416.99 203.04h-8.44l-3.31 6.77h-2.62l11.35-23.11h3.18l4.03 23.11h-2.97l-1.22-6.77zm-.33-2.32-1.79-10.62-5.2 10.62h6.99zM434.44 209.82h-2.56l-4.57-23.11h3.09l3.63 18.68 8.97-18.68h2.69l-11.25 23.11zM448.28 209.82l3.86-23.11h14.41l-.39 2.29h-11.59l-1.27 7.6h9.93l-.39 2.29h-9.92l-1.42 8.48H464l-.41 2.46h-15.31zM485.41 209.82h-14.29l3.86-23.11h2.82l-3.45 20.66h11.47l-.41 2.45zM495.58 209.82h-3.81l.64-3.89h3.83l-.66 3.89zM523.35 193.82l-2.52.63c-.26-2.25-.89-3.81-1.9-4.68-1.01-.87-2.17-1.31-3.51-1.31-1.55 0-2.88.53-3.99 1.59-1.11 1.06-2.01 2.64-2.69 4.74-.68 2.1-1.02 4.06-1.02 5.89 0 2.3.51 4.08 1.52 5.33s2.35 1.87 4.01 1.87c2.64 0 4.72-1.81 6.25-5.43l2.34.88c-1.73 4.59-4.61 6.89-8.65 6.89-2.7 0-4.78-.95-6.24-2.84-1.46-1.9-2.19-4.31-2.19-7.25 0-3.51.98-6.72 2.95-9.63s4.51-4.36 7.63-4.36c2.01 0 3.76.61 5.27 1.83 1.5 1.21 2.41 3.16 2.74 5.85zM536.99 210.29c-2.65 0-4.77-.95-6.37-2.85-1.59-1.9-2.39-4.41-2.39-7.51 0-3.5.98-6.66 2.95-9.47 1.96-2.81 4.57-4.22 7.82-4.22 2.57 0 4.67.89 6.3 2.68s2.44 4.24 2.44 7.35c0 3.69-.96 6.96-2.9 9.79-1.92 2.82-4.54 4.23-7.85 4.23zm-.01-2.32c1.76 0 3.25-.67 4.49-2.01 1.24-1.34 2.09-3.03 2.58-5.08.48-2.05.73-3.79.73-5.21 0-2.22-.55-3.97-1.66-5.22-1.11-1.25-2.51-1.88-4.23-1.88-2.46 0-4.35 1.23-5.69 3.7-1.34 2.47-2 5.22-2 8.24 0 2.4.54 4.24 1.62 5.52 1.09 1.3 2.47 1.94 4.16 1.94zM576.02 209.82h-2.82l3.56-21.21-11.1 21.21h-2.13l-4.13-20.88-3.51 20.88h-2.35l3.87-23.11h4.27l3.78 18.93 9.86-18.93h4.57l-3.87 23.11z"/><g><path style="fill:#293789" d="M258.66 129.36h-57.24c-.27 2.26-.41 3.94-.41 5.04 0 3.64 1.16 6.48 3.49 8.51 2.33 2.04 5.28 3.06 8.84 3.06 6.75 0 11.51-3.51 14.31-10.53l27.96 4.52c-3.62 8.14-9.47 14.72-17.56 19.76-8.09 5.03-17.06 7.55-26.93 7.55-12.39 0-22.44-3.52-30.14-10.57-7.7-7.04-11.55-16.65-11.55-28.82 0-13.21 4.55-24.55 13.65-34.01 9.1-9.46 21-14.19 35.69-14.19 12.44 0 22.35 3.67 29.73 11 7.37 7.34 11.06 17.08 11.06 29.23.01 2.74-.3 5.89-.9 9.45zm-29.93-15.95c.27-1.7.41-3.01.41-3.95 0-2.96-.92-5.54-2.75-7.73s-4.4-3.29-7.69-3.29c-3.51 0-6.69 1.33-9.54 3.99-2.85 2.66-4.61 6.32-5.26 10.98h24.83zM279.55 81.74h29.6l-2.24 13.32c3.84-6.52 7.61-10.76 11.31-12.7 3.7-1.95 7.75-2.92 12.14-2.92 8.56 0 15.44 3.19 20.65 9.58 5.21 6.39 7.82 15.01 7.82 25.86 0 13.21-3.59 25.15-10.77 35.81-7.18 10.66-16.7 16-28.54 16-9.27 0-16.17-3.89-20.72-11.68l-5.98 36.19h-31.6l18.33-109.46zm26.55 29.86c-2.38 13-3.57 21.33-3.57 25.01 0 2.96.75 5.37 2.26 7.23 1.51 1.86 3.63 2.8 6.37 2.8 3.23 0 5.8-1.37 7.72-4.11s3.58-7.58 5.01-14.52c1.42-6.93 2.13-12.07 2.13-15.42 0-8.17-3.02-12.25-9.05-12.25-5.22-.01-8.84 3.75-10.87 11.26zM414.69 52.55l-18.75 112.26h-31.6l18.75-112.26h31.6zM504.64 129.36H447.4c-.27 2.26-.41 3.94-.41 5.04 0 3.64 1.16 6.48 3.49 8.51 2.33 2.04 5.28 3.06 8.84 3.06 6.75 0 11.51-3.51 14.31-10.53l27.96 4.52c-3.62 8.14-9.47 14.72-17.56 19.76-8.09 5.03-17.06 7.55-26.93 7.55-12.39 0-22.44-3.52-30.14-10.57-7.7-7.04-11.55-16.65-11.55-28.82 0-13.21 4.55-24.55 13.65-34.01 9.1-9.46 21-14.19 35.69-14.19 12.44 0 22.35 3.67 29.73 11 7.37 7.34 11.06 17.08 11.06 29.23 0 2.74-.3 5.89-.9 9.45zm-29.94-15.95c.27-1.7.41-3.01.41-3.95 0-2.96-.92-5.54-2.75-7.73-1.84-2.19-4.4-3.29-7.69-3.29-3.51 0-6.69 1.33-9.54 3.99-2.85 2.66-4.61 6.32-5.26 10.98h24.83zM525.45 81.74h27.68l-3.32 20.04c5.77-15 14.59-22.5 26.45-22.5.93 0 2.23.14 3.87.41l-3.7 29.61c-2.85-.17-4.75-.25-5.68-.25-6.86 0-11.89 1.6-15.1 4.81-3.21 3.2-5.49 8.88-6.86 17.04l-5.65 33.91h-31.6l13.91-83.07z"/><path style="fill:#ec2d3a" d="M183.57 52.79c-.33-.71-1.37.37-1.37.37s-1.38-.86-6.27 5.56l-8.53 2.98-.7 1.21 7.05-1.4c-1.54 1.93-2.78 3.37-3.7 4.4l-3.51-.34-1.24 1.07 2.97.82.45-.12c-.07.07-.13.14-.19.19l-.26-.07-2.02.55-.11.56 1.85-.5c-.45.47-1.41 1.61 1.2.43 0 0 4.19-3.31 8.36-7.51l-.4 2.91.47.76 1.51-5.32c1.2-1.29 2.36-2.63 3.36-3.96.01.02 1.41-1.88 1.08-2.59z"/><path style="fill:#ec2d3a" d="M95.01 120.71c47.14-13.79 86.5-66.06 86.5-66.06-48.43 56.64-108.05 70.19-119.11 54.81-6.88-9.57-.76-18.25 4.84-23.43-23.25 20.31-15.68 47.4 27.77 34.68z"/><g><path style="fill:#293789" d="M142.22 98.14c-13.65 10.95-29.9 21.2-47.21 26.26-10.18 2.98-18.38 3.77-24.68 2.98l-6.25 37.42h31.27l4.57-27.37 17.03-18.99 12.7 46.36h33.13l-20.56-66.66zM105.13 106.18l.34-2.06 8.61-51.57H82.83l-9.77 58.46c7.94 1.26 19.14-.23 32.07-4.83z"/></g></g></svg>